<?xml version="1.0" encoding="UTF-8" standalone="no"?>
<!DOCTYPE svg PUBLIC "-//W3C//DTD SVG 1.1//EN" "http://www.w3.org/Graphics/SVG/1.1/DTD/svg11.dtd">
<svg width="100%" height="100%" viewBox="0 0 485 195" version="1.1" xmlns="http://www.w3.org/2000/svg" xmlns:xlink="http://www.w3.org/1999/xlink" xml:space="preserve" xmlns:serif="http://www.serif.com/" style="fill-rule:evenodd;clip-rule:evenodd;stroke-linejoin:round;stroke-miterlimit:2;">
    <g id="Artboard1" transform="matrix(0.969522,0,0,0.518449,0,0)">
        <rect x="0" y="0" width="500" height="375" style="fill:none;"/>
        <g transform="matrix(0.644647,0,0,1.20552,-7.0731,-171.951)">
            <g transform="matrix(1.99018,0,0,1.99018,-396.073,-297.055)">
                <path d="M392.659,259.892C388.374,256.131 387.236,251.232 387.236,246.991C387.236,244.018 388.155,238.856 392.353,235.009C395.501,232.122 399.656,230.373 406.172,230.373C408.884,230.373 410.502,230.548 412.514,230.811C414.175,231.028 415.574,231.423 416.887,231.554C417.367,231.598 417.543,231.816 417.543,232.078C417.543,232.429 417.411,232.953 417.324,234.483C417.236,235.927 417.28,238.332 417.192,239.207C417.149,239.862 417.062,240.213 416.668,240.213C416.318,240.213 416.23,239.862 416.23,239.25C416.187,237.895 415.618,236.364 414.525,235.228C413.082,233.696 409.671,232.516 405.647,232.516C401.843,232.516 399.35,233.478 397.426,235.228C394.233,238.157 393.402,242.312 393.402,246.554C393.402,256.962 401.318,262.122 407.178,262.122C411.07,262.122 413.432,261.685 415.181,259.673C415.925,258.842 416.493,257.574 416.668,256.787C416.799,256.087 416.887,255.912 417.236,255.912C417.543,255.912 417.63,256.218 417.63,256.568C417.63,257.093 417.105,260.897 416.668,262.385C416.449,263.128 416.274,263.347 415.531,263.652C413.781,264.353 410.458,264.658 407.659,264.658C401.668,264.658 396.639,263.347 392.659,259.892Z" style="fill:white;fill-rule:nonzero;"/>
            </g>
            <g transform="matrix(1.99018,0,0,1.99018,-396.073,-297.055)">
                <path d="M432.459,251.364C432.459,256.962 432.459,259.979 433.377,260.767C434.121,261.422 435.258,261.729 438.669,261.729C440.986,261.729 442.692,261.685 443.785,260.504C444.311,259.936 444.835,258.711 444.923,257.88C444.966,257.486 445.054,257.224 445.403,257.224C445.71,257.224 445.754,257.442 445.754,257.968C445.754,258.448 445.447,261.729 445.098,262.997C444.835,263.959 444.616,264.178 442.343,264.178C439.193,264.178 436.92,264.09 434.952,264.046C432.983,263.959 431.409,263.915 429.616,263.915C429.136,263.915 428.173,263.915 427.124,263.959C426.118,263.959 424.98,264.046 424.106,264.046C423.538,264.046 423.231,263.915 423.231,263.609C423.231,263.391 423.406,263.259 423.932,263.259C424.587,263.259 425.112,263.172 425.506,263.084C426.38,262.909 426.599,261.947 426.773,260.679C426.992,258.842 426.992,255.388 426.992,251.364L426.992,243.667C426.992,237.021 426.992,235.796 426.905,234.396C426.817,232.909 426.468,232.21 425.024,231.903C424.675,231.816 424.15,231.772 423.581,231.772C423.101,231.772 422.838,231.685 422.838,231.379C422.838,231.072 423.145,230.985 423.8,230.985C425.855,230.985 428.61,231.116 429.791,231.116C430.841,231.116 434.033,230.985 435.739,230.985C436.352,230.985 436.657,231.072 436.657,231.379C436.657,231.685 436.395,231.772 435.87,231.772C435.389,231.772 434.689,231.816 434.164,231.903C432.983,232.122 432.634,232.865 432.547,234.396C432.459,235.796 432.459,237.021 432.459,243.667L432.459,251.364Z" style="fill:white;fill-rule:nonzero;"/>
            </g>
            <g transform="matrix(1.99018,0,0,1.99018,-396.073,-297.055)">
                <path d="M464.998,250.708C465.217,250.708 465.261,250.577 465.217,250.445L461.281,239.688C461.237,239.513 461.193,239.294 461.063,239.294C460.931,239.294 460.844,239.513 460.8,239.688L456.776,250.402C456.732,250.577 456.776,250.708 456.951,250.708L464.998,250.708ZM456.077,252.895C455.858,252.895 455.771,252.982 455.684,253.244L453.321,259.235C452.885,260.329 452.666,261.379 452.666,261.903C452.666,262.69 453.06,263.259 454.415,263.259L455.071,263.259C455.596,263.259 455.727,263.347 455.727,263.609C455.727,263.959 455.465,264.046 454.983,264.046C453.584,264.046 451.703,263.915 450.348,263.915C449.867,263.915 447.462,264.046 445.188,264.046C444.619,264.046 444.356,263.959 444.356,263.609C444.356,263.347 444.531,263.259 444.882,263.259C445.275,263.259 445.888,263.216 446.237,263.172C448.249,262.909 449.08,261.422 449.954,259.235L460.931,232.122C461.456,230.854 461.718,230.373 462.155,230.373C462.549,230.373 462.812,230.767 463.249,231.772C464.298,234.178 471.295,251.67 474.094,258.317C475.756,262.253 477.024,262.865 477.942,263.084C478.599,263.216 479.255,263.259 479.779,263.259C480.129,263.259 480.348,263.303 480.348,263.609C480.348,263.959 479.954,264.046 478.336,264.046C476.762,264.046 473.569,264.046 470.071,263.959C469.284,263.915 468.759,263.915 468.759,263.609C468.759,263.347 468.934,263.259 469.371,263.216C469.678,263.128 469.983,262.734 469.765,262.21L466.267,253.201C466.179,252.982 466.048,252.895 465.829,252.895L456.077,252.895Z" style="fill:white;fill-rule:nonzero;"/>
            </g>
            <g transform="matrix(1.99018,0,0,1.99018,-396.073,-297.055)">
                <path d="M490.104,247.122C490.104,247.604 490.191,247.778 490.497,247.909C491.415,248.216 492.728,248.347 493.82,248.347C495.57,248.347 496.139,248.172 496.926,247.604C498.237,246.641 499.506,244.629 499.506,241.043C499.506,234.833 495.396,233.04 492.814,233.04C491.722,233.04 490.935,233.084 490.497,233.216C490.191,233.303 490.104,233.478 490.104,233.827L490.104,247.122ZM484.943,243.667C484.943,237.021 484.943,235.796 484.855,234.396C484.769,232.909 484.418,232.21 482.976,231.903C482.625,231.816 481.882,231.772 481.27,231.772C480.789,231.772 480.526,231.685 480.526,231.379C480.526,231.072 480.832,230.985 481.488,230.985C483.807,230.985 486.562,231.116 487.479,231.116C488.967,231.116 492.29,230.985 493.646,230.985C496.401,230.985 499.331,231.247 501.692,232.865C502.917,233.696 504.666,235.927 504.666,238.856C504.666,242.093 503.311,245.066 498.894,248.652C502.786,253.551 505.804,257.442 508.384,260.154C510.832,262.69 512.625,262.997 513.281,263.128C513.763,263.216 514.156,263.259 514.505,263.259C514.854,263.259 515.03,263.391 515.03,263.609C515.03,263.959 514.724,264.046 514.2,264.046L510.045,264.046C507.597,264.046 506.503,263.827 505.366,263.216C503.485,262.21 501.823,260.154 499.375,256.787C497.625,254.382 495.613,251.408 495.045,250.752C494.826,250.489 494.564,250.445 494.258,250.445L490.453,250.358C490.234,250.358 490.104,250.445 490.104,250.708L490.104,251.32C490.104,255.388 490.104,258.842 490.322,260.679C490.453,261.947 490.716,262.909 492.027,263.084C492.684,263.172 493.646,263.259 494.171,263.259C494.521,263.259 494.695,263.391 494.695,263.609C494.695,263.915 494.39,264.046 493.82,264.046C491.284,264.046 488.048,263.915 487.393,263.915C486.562,263.915 483.807,264.046 482.057,264.046C481.488,264.046 481.183,263.915 481.183,263.609C481.183,263.391 481.357,263.259 481.882,263.259C482.538,263.259 483.063,263.172 483.456,263.084C484.331,262.909 484.55,261.947 484.725,260.679C484.943,258.842 484.943,255.388 484.943,251.364L484.943,243.667Z" style="fill:white;fill-rule:nonzero;"/>
            </g>
            <g transform="matrix(1.99018,0,0,1.99018,-396.073,-297.055)">
                <path d="M523.3,245.592L523.518,245.592C525.005,243.974 531.39,237.457 532.658,235.971C533.883,234.527 534.845,233.434 534.845,232.69C534.845,232.21 534.67,231.903 534.232,231.816C533.839,231.729 533.664,231.641 533.664,231.379C533.664,231.072 533.883,230.985 534.363,230.985C535.282,230.985 537.688,231.116 538.868,231.116C540.224,231.116 542.629,230.985 543.984,230.985C544.422,230.985 544.728,231.072 544.728,231.379C544.728,231.685 544.51,231.772 544.072,231.772C543.46,231.772 542.366,231.947 541.535,232.253C540.18,232.778 538.693,233.696 536.813,235.533C535.457,236.845 528.854,243.405 527.366,244.979C528.94,247.034 537.513,256.262 539.218,257.88C541.142,259.717 543.11,261.685 545.472,262.604C546.783,263.128 547.658,263.259 548.183,263.259C548.489,263.259 548.751,263.347 548.751,263.609C548.751,263.915 548.532,264.046 547.702,264.046L543.897,264.046C542.585,264.046 541.798,264.046 540.88,263.959C538.519,263.74 537.337,262.778 535.457,261.116C533.532,259.411 524.918,249.309 523.999,248.04L523.518,247.385L523.3,247.385L523.3,251.364C523.3,255.388 523.3,258.842 523.431,260.723C523.518,261.947 523.912,262.909 525.005,263.084C525.617,263.172 526.579,263.259 527.147,263.259C527.498,263.259 527.717,263.391 527.717,263.609C527.717,263.915 527.366,264.046 526.886,264.046C524.437,264.046 521.682,263.915 520.588,263.915C519.581,263.915 516.827,264.046 515.078,264.046C514.51,264.046 514.203,263.915 514.203,263.609C514.203,263.391 514.378,263.259 514.903,263.259C515.559,263.259 516.084,263.172 516.478,263.084C517.352,262.909 517.57,261.947 517.745,260.679C517.964,258.842 517.964,255.388 517.964,251.364L517.964,243.667C517.964,237.021 517.964,235.796 517.877,234.396C517.789,232.909 517.439,232.21 515.995,231.903C515.646,231.816 514.903,231.772 514.291,231.772C513.81,231.772 513.547,231.685 513.547,231.379C513.547,231.072 513.854,230.985 514.51,230.985C516.827,230.985 519.581,231.116 520.632,231.116C521.682,231.116 524.437,230.985 525.924,230.985C526.535,230.985 526.842,231.072 526.842,231.379C526.842,231.685 526.579,231.772 526.229,231.772C525.792,231.772 525.53,231.816 525.005,231.903C523.823,232.122 523.474,232.865 523.387,234.396C523.3,235.796 523.3,237.021 523.3,243.667L523.3,245.592Z" style="fill:white;fill-rule:nonzero;"/>
            </g>
            <g transform="matrix(1.99018,0,0,1.99018,-396.073,-297.055)">
                <path d="M397.47,303.849C397.47,309.446 397.47,312.464 398.388,313.251C399.131,313.906 400.269,314.213 403.68,314.213C405.997,314.213 407.703,314.169 408.796,312.988C409.321,312.42 409.846,311.195 409.934,310.364C409.977,309.971 410.064,309.708 410.414,309.708C410.721,309.708 410.765,309.927 410.765,310.452C410.765,310.933 410.458,314.213 410.108,315.481C409.846,316.443 409.627,316.662 407.354,316.662C404.204,316.662 401.931,316.574 399.962,316.53C397.994,316.443 396.42,316.399 394.627,316.399C394.146,316.399 393.184,316.399 392.134,316.443C391.128,316.443 389.991,316.53 389.117,316.53C388.548,316.53 388.242,316.399 388.242,316.094C388.242,315.875 388.417,315.743 388.942,315.743C389.598,315.743 390.123,315.656 390.516,315.568C391.391,315.394 391.609,314.432 391.784,313.163C392.003,311.326 392.003,307.872 392.003,303.849L392.003,296.151C392.003,289.505 392.003,288.28 391.916,286.881C391.828,285.394 391.479,284.694 390.035,284.388C389.685,284.301 389.161,284.257 388.592,284.257C388.111,284.257 387.849,284.169 387.849,283.863C387.849,283.557 388.155,283.47 388.811,283.47C390.866,283.47 393.621,283.601 394.802,283.601C395.852,283.601 399.044,283.47 400.75,283.47C401.362,283.47 401.668,283.557 401.668,283.863C401.668,284.169 401.405,284.257 400.881,284.257C400.399,284.257 399.7,284.301 399.175,284.388C397.994,284.606 397.645,285.35 397.557,286.881C397.47,288.28 397.47,289.505 397.47,296.151L397.47,303.849Z" style="fill:white;fill-rule:nonzero;"/>
            </g>
            <g transform="matrix(1.99018,0,0,1.99018,-396.073,-297.055)">
                <path d="M430.009,303.192C430.228,303.192 430.271,303.062 430.228,302.93L426.292,292.172C426.248,291.997 426.204,291.778 426.073,291.778C425.941,291.778 425.854,291.997 425.811,292.172L421.787,302.887C421.743,303.062 421.787,303.192 421.962,303.192L430.009,303.192ZM421.088,305.379C420.869,305.379 420.781,305.467 420.694,305.729L418.332,311.72C417.896,312.813 417.677,313.863 417.677,314.388C417.677,315.175 418.07,315.743 419.426,315.743L420.082,315.743C420.606,315.743 420.737,315.831 420.737,316.094C420.737,316.443 420.476,316.53 419.994,316.53C418.595,316.53 416.714,316.399 415.358,316.399C414.878,316.399 412.473,316.53 410.198,316.53C409.63,316.53 409.367,316.443 409.367,316.094C409.367,315.831 409.542,315.743 409.893,315.743C410.286,315.743 410.898,315.7 411.248,315.656C413.26,315.394 414.091,313.906 414.965,311.72L425.941,284.606C426.467,283.338 426.729,282.857 427.166,282.857C427.56,282.857 427.822,283.251 428.26,284.257C429.309,286.662 436.306,304.154 439.104,310.802C440.767,314.737 442.035,315.35 442.953,315.568C443.609,315.7 444.266,315.743 444.79,315.743C445.14,315.743 445.358,315.787 445.358,316.094C445.358,316.443 444.965,316.53 443.347,316.53C441.772,316.53 438.58,316.53 435.082,316.443C434.295,316.399 433.77,316.399 433.77,316.094C433.77,315.831 433.944,315.743 434.382,315.7C434.688,315.612 434.994,315.219 434.775,314.694L431.277,305.686C431.189,305.467 431.059,305.379 430.84,305.379L421.088,305.379Z" style="fill:white;fill-rule:nonzero;"/>
            </g>
            <g transform="matrix(1.99018,0,0,1.99018,-396.073,-297.055)">
                <path d="M449.954,296.151C449.954,289.505 449.954,288.28 449.866,286.881C449.779,285.394 449.342,284.65 448.38,284.432C447.898,284.301 447.33,284.257 446.806,284.257C446.368,284.257 446.105,284.169 446.105,283.819C446.105,283.557 446.455,283.47 447.155,283.47C448.817,283.47 451.572,283.601 452.84,283.601C453.934,283.601 456.514,283.47 458.176,283.47C458.744,283.47 459.094,283.557 459.094,283.819C459.094,284.169 458.831,284.257 458.395,284.257C457.957,284.257 457.607,284.301 457.082,284.388C455.901,284.606 455.552,285.35 455.464,286.881C455.377,288.28 455.377,289.505 455.377,296.151L455.377,303.849C455.377,308.091 455.377,311.545 455.552,313.426C455.683,314.606 455.989,315.394 457.301,315.568C457.913,315.656 458.875,315.743 459.531,315.743C460.013,315.743 460.23,315.875 460.23,316.094C460.23,316.399 459.881,316.53 459.4,316.53C456.514,316.53 453.759,316.399 452.578,316.399C451.572,316.399 448.817,316.53 447.067,316.53C446.499,316.53 446.193,316.399 446.193,316.094C446.193,315.875 446.368,315.743 446.893,315.743C447.549,315.743 448.073,315.656 448.467,315.568C449.342,315.394 449.604,314.65 449.735,313.382C449.954,311.545 449.954,308.091 449.954,303.849L449.954,296.151Z" style="fill:white;fill-rule:nonzero;"/>
            </g>
            <g transform="matrix(1.99018,0,0,1.99018,-396.073,-297.055)">
                <path d="M475.189,300.962C475.189,305.598 475.233,308.965 475.277,309.796C475.32,310.89 475.408,312.639 475.758,313.119C476.326,313.95 478.032,314.869 481.487,314.869C485.947,314.869 488.921,313.994 491.545,311.72C494.344,309.314 495.219,305.335 495.219,300.831C495.219,295.277 492.9,291.691 491.021,289.898C486.997,286.05 482.012,285.524 478.601,285.524C477.726,285.524 476.107,285.656 475.758,285.831C475.364,286.006 475.233,286.225 475.233,286.706C475.189,288.192 475.189,291.997 475.189,295.452L475.189,300.962ZM469.723,296.151C469.723,289.505 469.723,288.28 469.636,286.881C469.548,285.394 469.198,284.694 467.755,284.388C467.405,284.301 466.662,284.257 466.05,284.257C465.568,284.257 465.306,284.169 465.306,283.863C465.306,283.557 465.612,283.47 466.269,283.47C468.586,283.47 471.341,283.601 472.565,283.601C473.921,283.601 476.677,283.47 479.3,283.47C484.767,283.47 492.07,283.47 496.837,288.455C499.023,290.729 501.079,294.358 501.079,299.563C501.079,305.073 498.761,309.271 496.312,311.764C494.3,313.819 489.752,316.924 481.662,316.924C480.088,316.924 478.294,316.793 476.633,316.662C474.971,316.53 473.44,316.399 472.347,316.399C471.866,316.399 470.903,316.399 469.854,316.443C468.849,316.443 467.711,316.53 466.837,316.53C466.269,316.53 465.962,316.399 465.962,316.094C465.962,315.875 466.137,315.743 466.662,315.743C467.317,315.743 467.843,315.656 468.236,315.568C469.11,315.394 469.329,314.432 469.504,313.163C469.723,311.326 469.723,307.872 469.723,303.849L469.723,296.151Z" style="fill:white;fill-rule:nonzero;"/>
            </g>
            <g transform="matrix(1.99018,0,0,1.99018,-396.073,-297.055)">
                <path d="M515.69,303.849C515.69,309.446 515.69,312.464 516.607,313.251C517.352,313.906 518.489,314.213 521.899,314.213C524.218,314.213 525.923,314.169 527.017,312.988C527.541,312.42 528.066,311.195 528.153,310.364C528.197,309.971 528.285,309.708 528.635,309.708C528.94,309.708 528.984,309.927 528.984,310.452C528.984,310.933 528.679,314.213 528.328,315.481C528.066,316.443 527.848,316.662 525.573,316.662C522.425,316.662 520.15,316.574 518.182,316.53C516.215,316.443 514.641,316.399 512.848,316.399C512.366,316.399 511.404,316.399 510.354,316.443C509.349,316.443 508.212,316.53 507.337,316.53C506.769,316.53 506.463,316.399 506.463,316.094C506.463,315.875 506.638,315.743 507.162,315.743C507.818,315.743 508.343,315.656 508.736,315.568C509.611,315.394 509.83,314.432 510.005,313.163C510.224,311.326 510.224,307.872 510.224,303.849L510.224,296.151C510.224,289.505 510.224,288.28 510.136,286.881C510.049,285.394 509.698,284.694 508.256,284.388C507.905,284.301 507.381,284.257 506.813,284.257C506.331,284.257 506.069,284.169 506.069,283.863C506.069,283.557 506.375,283.47 507.031,283.47C509.087,283.47 511.842,283.601 513.021,283.601C514.072,283.601 517.265,283.47 518.969,283.47C519.581,283.47 519.888,283.557 519.888,283.863C519.888,284.169 519.625,284.257 519.101,284.257C518.62,284.257 517.919,284.301 517.396,284.388C516.215,284.606 515.865,285.35 515.776,286.881C515.69,288.28 515.69,289.505 515.69,296.151L515.69,303.849Z" style="fill:white;fill-rule:nonzero;"/>
            </g>
            <g transform="matrix(1.99018,0,0,1.99018,-396.073,-297.055)">
                <path d="M536.685,296.151C536.685,289.505 536.685,288.28 536.597,286.881C536.51,285.394 536.159,284.694 534.717,284.388C534.366,284.301 533.623,284.257 533.011,284.257C532.53,284.257 532.268,284.169 532.268,283.863C532.268,283.557 532.573,283.47 533.229,283.47C534.41,283.47 535.679,283.513 536.771,283.513C537.909,283.557 538.915,283.601 539.527,283.601C540.927,283.601 549.629,283.601 550.46,283.557C551.291,283.47 551.99,283.382 552.341,283.295C552.559,283.251 552.821,283.119 553.04,283.119C553.259,283.119 553.303,283.295 553.303,283.513C553.303,283.819 553.084,284.344 552.952,286.355C552.909,286.793 552.821,288.717 552.734,289.242C552.69,289.461 552.603,289.723 552.297,289.723C551.99,289.723 551.903,289.505 551.903,289.11C551.903,288.805 551.859,288.062 551.641,287.536C551.335,286.749 550.897,286.225 548.711,285.962C547.967,285.875 543.375,285.787 542.501,285.787C542.282,285.787 542.194,285.918 542.194,286.225L542.194,297.289C542.194,297.595 542.238,297.77 542.501,297.77C543.463,297.77 548.492,297.77 549.498,297.683C550.548,297.595 551.203,297.464 551.597,297.026C551.903,296.677 552.078,296.458 552.297,296.458C552.472,296.458 552.603,296.545 552.603,296.808C552.603,297.07 552.428,297.77 552.253,300C552.209,300.875 552.078,302.624 552.078,302.93C552.078,303.28 552.078,303.761 551.685,303.761C551.378,303.761 551.291,303.586 551.291,303.367C551.247,302.93 551.247,302.361 551.116,301.793C550.897,300.918 550.285,300.263 548.667,300.088C547.836,300 543.507,299.956 542.457,299.956C542.238,299.956 542.194,300.131 542.194,300.394L542.194,303.849C542.194,305.335 542.151,309.358 542.194,310.627C542.282,313.645 542.981,314.3 547.442,314.3C548.579,314.3 550.416,314.3 551.553,313.775C552.69,313.251 553.215,312.332 553.521,310.539C553.608,310.059 553.696,309.884 554.002,309.884C554.352,309.884 554.352,310.233 554.352,310.671C554.352,311.677 554.002,314.65 553.783,315.524C553.478,316.662 553.084,316.662 551.422,316.662C548.143,316.662 545.737,316.574 543.856,316.53C541.976,316.443 540.62,316.399 539.309,316.399C538.827,316.399 537.865,316.399 536.815,316.443C535.81,316.443 534.673,316.53 533.798,316.53C533.229,316.53 532.924,316.399 532.924,316.094C532.924,315.875 533.099,315.743 533.623,315.743C534.279,315.743 534.804,315.656 535.197,315.568C536.072,315.394 536.291,314.432 536.466,313.163C536.685,311.326 536.685,307.872 536.685,303.849L536.685,296.151Z" style="fill:white;fill-rule:nonzero;"/>
            </g>
            <g transform="matrix(1.99018,0,0,1.99018,-396.073,-297.055)">
                <path d="M569.748,305.204C569.748,302.843 569.312,301.881 568.742,300.612C568.437,299.912 562.576,290.292 561.046,288.018C559.952,286.399 558.859,285.307 558.028,284.825C557.46,284.519 556.717,284.257 556.191,284.257C555.842,284.257 555.535,284.169 555.535,283.863C555.535,283.601 555.842,283.47 556.366,283.47C557.153,283.47 560.434,283.601 561.877,283.601C562.795,283.601 564.588,283.47 566.556,283.47C566.993,283.47 567.212,283.601 567.212,283.863C567.212,284.125 566.906,284.169 566.25,284.344C565.856,284.432 565.638,284.781 565.638,285.131C565.638,285.481 565.856,286.006 566.162,286.618C566.774,287.93 572.897,298.47 573.597,299.694C574.034,298.645 579.544,289.023 580.156,287.668C580.594,286.706 580.769,285.962 580.769,285.394C580.769,284.956 580.594,284.476 579.851,284.301C579.457,284.213 579.063,284.125 579.063,283.863C579.063,283.557 579.282,283.47 579.807,283.47C581.25,283.47 582.649,283.601 583.917,283.601C584.88,283.601 587.766,283.47 588.597,283.47C589.078,283.47 589.384,283.557 589.384,283.819C589.384,284.125 589.034,284.257 588.553,284.257C588.115,284.257 587.285,284.432 586.629,284.781C585.711,285.219 585.229,285.743 584.268,286.924C582.824,288.674 576.702,298.95 575.915,300.831C575.259,302.405 575.259,303.761 575.259,305.204L575.259,308.79C575.259,309.49 575.259,311.326 575.39,313.163C575.478,314.432 575.871,315.394 577.183,315.568C577.795,315.656 578.757,315.743 579.369,315.743C579.851,315.743 580.069,315.875 580.069,316.094C580.069,316.399 579.719,316.53 579.15,316.53C576.396,316.53 573.641,316.399 572.46,316.399C571.366,316.399 568.611,316.53 566.993,316.53C566.381,316.53 566.031,316.443 566.031,316.094C566.031,315.875 566.25,315.743 566.73,315.743C567.343,315.743 567.868,315.656 568.262,315.568C569.136,315.394 569.529,314.432 569.617,313.163C569.748,311.326 569.748,309.49 569.748,308.79L569.748,305.204Z" style="fill:white;fill-rule:nonzero;"/>
            </g>
            <g transform="matrix(1.99018,0,0,1.99018,-396.073,-297.055)">
                <path d="M414.438,349.86C414.568,349.86 414.7,349.773 414.7,349.555L414.7,348.636C414.7,341.989 414.7,340.765 414.612,339.365C414.525,337.878 414.175,337.179 412.732,336.872C412.382,336.785 411.639,336.741 411.026,336.741C410.546,336.741 410.283,336.653 410.283,336.348C410.283,336.041 410.589,335.954 411.201,335.954C413.563,335.954 416.318,336.085 417.499,336.085C418.549,336.085 421.304,335.954 423.009,335.954C423.621,335.954 423.928,336.041 423.928,336.348C423.928,336.653 423.665,336.741 423.141,336.741C422.79,336.741 422.396,336.785 421.872,336.872C420.691,337.091 420.342,337.834 420.254,339.365C420.166,340.765 420.166,341.989 420.166,348.636L420.166,356.333C420.166,360.356 420.166,363.811 420.385,365.691C420.517,366.916 420.778,367.878 422.091,368.053C422.703,368.141 423.665,368.228 424.321,368.228C424.802,368.228 425.021,368.359 425.021,368.578C425.021,368.884 424.671,369.015 424.146,369.015C421.304,369.015 418.549,368.884 417.324,368.884C416.318,368.884 413.563,369.015 411.857,369.015C411.245,369.015 410.939,368.884 410.939,368.578C410.939,368.359 411.114,368.228 411.639,368.228C412.295,368.228 412.819,368.141 413.213,368.053C414.088,367.878 414.307,366.916 414.481,365.647C414.7,363.811 414.7,360.356 414.7,356.333L414.7,352.484C414.7,352.31 414.568,352.222 414.438,352.222L397.732,352.222C397.601,352.222 397.47,352.266 397.47,352.484L397.47,356.333C397.47,360.356 397.47,363.811 397.688,365.691C397.819,366.916 398.082,367.878 399.394,368.053C400.006,368.141 400.969,368.228 401.624,368.228C402.105,368.228 402.324,368.359 402.324,368.578C402.324,368.884 401.974,369.015 401.449,369.015C398.606,369.015 395.852,368.884 394.627,368.884C393.621,368.884 390.866,369.015 389.117,369.015C388.548,369.015 388.242,368.884 388.242,368.578C388.242,368.359 388.417,368.228 388.942,368.228C389.598,368.228 390.123,368.141 390.516,368.053C391.391,367.878 391.609,366.916 391.784,365.647C392.003,363.811 392.003,360.356 392.003,356.333L392.003,348.636C392.003,341.989 392.003,340.765 391.916,339.365C391.828,337.878 391.479,337.179 390.035,336.872C389.685,336.785 388.942,336.741 388.33,336.741C387.849,336.741 387.586,336.653 387.586,336.348C387.586,336.041 387.892,335.954 388.504,335.954C390.866,335.954 393.621,336.085 394.802,336.085C395.852,336.085 398.606,335.954 400.312,335.954C400.925,335.954 401.23,336.041 401.23,336.348C401.23,336.653 400.969,336.741 400.443,336.741C400.093,336.741 399.7,336.785 399.175,336.872C397.994,337.091 397.645,337.834 397.557,339.365C397.47,340.765 397.47,341.989 397.47,348.636L397.47,349.555C397.47,349.773 397.601,349.86 397.732,349.86L414.438,349.86Z" style="fill:white;fill-rule:nonzero;"/>
            </g>
            <g transform="matrix(1.99018,0,0,1.99018,-396.073,-297.055)">
                <path d="M458.918,353.315C458.918,343.52 453.276,337.44 446.104,337.44C441.075,337.44 435.347,340.239 435.347,351.129C435.347,360.225 440.375,367.44 448.771,367.44C451.833,367.44 458.918,365.954 458.918,353.315ZM429.312,352.484C429.312,345.006 434.253,335.342 447.372,335.342C458.262,335.342 465.04,341.683 465.04,351.697C465.04,361.712 458.043,369.627 446.936,369.627C434.384,369.627 429.312,360.225 429.312,352.484Z" style="fill:white;fill-rule:nonzero;"/>
            </g>
            <g transform="matrix(1.99018,0,0,1.99018,-396.073,-297.055)">
                <path d="M476.021,336.479C476.153,335.735 476.415,335.342 476.766,335.342C477.115,335.342 477.377,335.561 477.946,336.697L489.885,361.012L501.779,336.392C502.13,335.691 502.349,335.342 502.742,335.342C503.136,335.342 503.397,335.779 503.529,336.697L507.509,363.461C507.902,366.216 508.34,367.484 509.651,367.878C510.92,368.271 511.794,368.315 512.362,368.315C512.757,368.315 513.063,368.359 513.063,368.621C513.063,368.972 512.538,369.103 511.926,369.103C510.832,369.103 504.797,369.015 503.048,368.884C502.042,368.796 501.779,368.665 501.779,368.402C501.779,368.185 501.955,368.053 502.261,367.922C502.523,367.834 502.654,367.266 502.479,366.041L499.855,347.018L499.681,347.018L490.147,366.522C489.142,368.578 488.923,368.972 488.529,368.972C488.136,368.972 487.698,368.097 486.998,366.784C485.949,364.773 482.494,358.082 481.97,356.857C481.575,355.939 478.952,350.779 477.421,347.499L477.246,347.499L474.973,364.555C474.885,365.342 474.841,365.91 474.841,366.609C474.841,367.44 475.409,367.834 476.153,368.009C476.94,368.185 477.553,368.228 477.989,368.228C478.34,368.228 478.646,368.315 478.646,368.534C478.646,368.928 478.252,369.015 477.596,369.015C475.76,369.015 473.791,368.884 473.004,368.884C472.174,368.884 470.074,369.015 468.675,369.015C468.237,369.015 467.888,368.928 467.888,368.534C467.888,368.315 468.15,368.228 468.587,368.228C468.938,368.228 469.243,368.228 469.899,368.097C471.124,367.834 471.474,366.129 471.692,364.642L476.021,336.479Z" style="fill:white;fill-rule:nonzero;"/>
            </g>
            <g transform="matrix(1.99018,0,0,1.99018,-396.073,-297.055)">
                <path d="M520.021,348.636C520.021,341.989 520.021,340.765 519.934,339.365C519.847,337.878 519.495,337.179 518.054,336.872C517.703,336.785 516.96,336.741 516.348,336.741C515.867,336.741 515.604,336.653 515.604,336.348C515.604,336.041 515.909,335.954 516.565,335.954C517.747,335.954 519.016,335.997 520.107,335.997C521.245,336.041 522.252,336.085 522.864,336.085C524.263,336.085 532.966,336.085 533.797,336.041C534.628,335.954 535.327,335.866 535.678,335.779C535.896,335.735 536.158,335.604 536.377,335.604C536.596,335.604 536.64,335.779 536.64,335.997C536.64,336.304 536.421,336.828 536.289,338.84C536.246,339.277 536.158,341.201 536.071,341.727C536.027,341.945 535.939,342.207 535.634,342.207C535.327,342.207 535.24,341.989 535.24,341.595C535.24,341.289 535.196,340.546 534.978,340.021C534.672,339.233 534.234,338.709 532.048,338.446C531.304,338.359 526.712,338.271 525.838,338.271C525.619,338.271 525.531,338.402 525.531,338.709L525.531,349.773C525.531,350.079 525.575,350.254 525.838,350.254C526.8,350.254 531.829,350.254 532.835,350.167C533.885,350.079 534.54,349.948 534.934,349.511C535.24,349.161 535.415,348.942 535.634,348.942C535.809,348.942 535.939,349.029 535.939,349.292C535.939,349.555 535.765,350.254 535.59,352.484C535.546,353.359 535.415,355.108 535.415,355.414C535.415,355.765 535.415,356.245 535.021,356.245C534.715,356.245 534.628,356.07 534.628,355.852C534.584,355.414 534.584,354.846 534.453,354.277C534.234,353.402 533.622,352.747 532.004,352.572C531.173,352.484 526.844,352.44 525.794,352.44C525.575,352.44 525.531,352.615 525.531,352.878L525.531,356.333C525.531,357.819 525.488,361.843 525.531,363.111C525.619,366.129 526.318,366.784 530.779,366.784C531.916,366.784 533.753,366.784 534.89,366.26C536.027,365.735 536.552,364.816 536.858,363.023C536.945,362.543 537.033,362.368 537.339,362.368C537.688,362.368 537.688,362.718 537.688,363.155C537.688,364.161 537.339,367.135 537.12,368.009C536.814,369.146 536.421,369.146 534.759,369.146C531.479,369.146 529.074,369.059 527.193,369.015C525.313,368.928 523.956,368.884 522.646,368.884C522.164,368.884 521.202,368.884 520.151,368.928C519.146,368.928 518.01,369.015 517.135,369.015C516.565,369.015 516.261,368.884 516.261,368.578C516.261,368.359 516.435,368.228 516.96,368.228C517.616,368.228 518.141,368.141 518.534,368.053C519.409,367.878 519.628,366.916 519.802,365.647C520.021,363.811 520.021,360.356 520.021,356.333L520.021,348.636Z" style="fill:white;fill-rule:nonzero;"/>
            </g>
            <g transform="matrix(1.99018,0,0,1.99018,-396.073,-297.055)">
                <path d="M545.257,368.49C544.558,368.185 544.427,367.966 544.427,367.003C544.427,364.598 544.602,361.975 544.645,361.274C544.688,360.618 544.82,360.138 545.17,360.138C545.563,360.138 545.607,360.531 545.607,360.881C545.607,361.449 545.782,362.368 546.001,363.111C546.963,366.348 549.543,367.528 552.254,367.528C556.19,367.528 558.114,364.86 558.114,362.543C558.114,360.399 557.458,358.388 553.829,355.546L551.817,353.972C547.007,350.21 545.345,347.149 545.345,343.606C545.345,338.796 549.368,335.342 555.446,335.342C558.289,335.342 560.126,335.779 561.263,336.085C561.656,336.173 561.875,336.304 561.875,336.609C561.875,337.179 561.7,338.446 561.7,341.857C561.7,342.819 561.569,343.17 561.22,343.17C560.913,343.17 560.782,342.907 560.782,342.383C560.782,341.989 560.563,340.633 559.645,339.496C558.989,338.665 557.721,337.354 554.878,337.354C551.642,337.354 549.674,339.233 549.674,341.857C549.674,343.869 550.68,345.399 554.31,348.155L555.534,349.073C560.826,353.053 562.706,356.07 562.706,360.225C562.706,362.762 561.744,365.779 558.596,367.834C556.409,369.233 553.96,369.627 551.642,369.627C549.105,369.627 547.138,369.321 545.257,368.49Z" style="fill:white;fill-rule:nonzero;"/>
            </g>
            <g transform="matrix(1.99018,0,0,1.99018,-396.073,-297.055)">
                <path d="M342,313.893L278.679,239.971L215.358,313.893L210.616,309.831L278.679,230.373L346.742,309.831L342,313.893Z" style="fill:white;fill-rule:nonzero;"/>
            </g>
            <g transform="matrix(1.99018,0,0,1.99018,-396.073,-297.055)">
                <rect x="275.557" y="237.518" width="6.244" height="61.44" style="fill:white;fill-rule:nonzero;"/>
            </g>
            <g transform="matrix(1.99018,0,0,1.99018,-396.073,-297.055)">
                <rect x="233.253" y="285.081" width="90.907" height="6.244" style="fill:white;fill-rule:nonzero;"/>
            </g>
            <g transform="matrix(1.99018,0,0,1.99018,-396.073,-297.055)">
                <path d="M239.192,366.23C241.629,355.722 248.089,333.88 256.334,327.476L252.504,322.545C241.063,331.432 234.18,360.005 232.795,366.23L239.192,366.23Z" style="fill:white;fill-rule:nonzero;"/>
            </g>
            <g transform="matrix(1.99018,0,0,1.99018,-396.073,-297.055)">
                <rect x="232.479" y="288.203" width="6.244" height="78.027" style="fill:white;fill-rule:nonzero;"/>
            </g>
            <g transform="matrix(1.99018,0,0,1.99018,-396.073,-297.055)">
                <rect x="245.383" y="288.203" width="6.243" height="34.272" style="fill:white;fill-rule:nonzero;"/>
            </g>
            <g transform="matrix(1.99018,0,0,1.99018,-396.073,-297.055)">
                <rect x="226.51" y="322.475" width="31.233" height="6.244" style="fill:white;fill-rule:nonzero;"/>
            </g>
            <g transform="matrix(1.99018,0,0,1.99018,-396.073,-297.055)">
                <path d="M318.22,366.23L324.618,366.23C323.233,360.005 316.349,331.432 304.909,322.545L301.079,327.476C309.323,333.88 315.783,355.722 318.22,366.23Z" style="fill:white;fill-rule:nonzero;"/>
            </g>
            <g transform="matrix(1.99018,0,0,1.99018,-396.073,-297.055)">
                <rect x="318.69" y="288.203" width="6.244" height="78.027" style="fill:white;fill-rule:nonzero;"/>
            </g>
            <g transform="matrix(1.99018,0,0,1.99018,-396.073,-297.055)">
                <rect x="305.786" y="288.475" width="6.244" height="34.07" style="fill:white;fill-rule:nonzero;"/>
            </g>
            <g transform="matrix(1.99018,0,0,1.99018,-396.073,-297.055)">
                <rect x="299.67" y="322.475" width="31.233" height="6.244" style="fill:white;fill-rule:nonzero;"/>
            </g>
            <g transform="matrix(1.99018,0,0,1.99018,-396.073,-297.055)">
                <path d="M223.317,288.87L223.317,233.77L270.516,233.77L273.425,230.373L219.921,230.373L219.921,292.835L223.317,288.87Z" style="fill:white;fill-rule:nonzero;"/>
            </g>
            <g transform="matrix(1.99018,0,0,1.99018,-396.073,-297.055)">
                <path d="M286.842,233.77L334.041,233.77L334.041,288.87L337.437,292.835L337.437,230.373L283.933,230.373L286.842,233.77Z" style="fill:white;fill-rule:nonzero;"/>
            </g>
            <g transform="matrix(1.99018,0,0,1.99018,-396.073,-297.055)">
                <path d="M334.041,314.13L334.041,366.23L223.317,366.23L223.317,314.13L219.921,318.095L219.921,369.627L337.437,369.627L337.437,318.095L334.041,314.13Z" style="fill:white;fill-rule:nonzero;"/>
            </g>
            <g transform="matrix(1.99018,0,0,1.99018,-396.073,-297.055)">
                <rect x="364.571" y="227.561" width="2" height="144.878" style="fill:white;fill-rule:nonzero;"/>
            </g>
        </g>
    </g>
</svg>
